<svg xmlns="http://www.w3.org/2000/svg" viewBox="0 0 1024 1024">
  <rect width="1024" height="1024" fill="#111820"/>
  <rect x="96" y="96" width="832" height="832" rx="208" fill="#17252D"/>
  <path d="M250 338c0-42 34-76 76-76h324c42 0 76 34 76 76v218c0 42-34 76-76 76H326c-42 0-76-34-76-76V338Z" fill="#F4EFE5"/>
  <path d="M722 400l128-82c25-16 58 2 58 32v194c0 30-33 48-58 32l-128-82V400Z" fill="#F4EFE5"/>
  <path d="M304 374c0-26 21-47 47-47h254c26 0 47 21 47 47v146c0 26-21 47-47 47H351c-26 0-47-21-47-47V374Z" fill="#17252D"/>
  <path d="M491 520c-76-28-104-82-84-146 12-39 44-74 82-105-4 56 28 91 65 126 32 31 55 64 45 105-10 43-53 72-108 20Z" fill="#FF7A3D"/>
  <path d="M498 512c-40-17-56-49-44-86 8-23 27-44 48-63 1 33 22 54 44 75 19 18 31 38 24 62-7 25-34 40-72 12Z" fill="#FFD063"/>
  <path d="M352 696h320" stroke="#F4EFE5" stroke-width="50" stroke-linecap="round"/>
  <circle cx="392" cy="736" r="42" fill="#FFB545"/>
  <circle cx="512" cy="736" r="42" fill="#F4EFE5"/>
  <circle cx="632" cy="736" r="42" fill="#49C5B6"/>
</svg>
